
General
Complete name                    : Apocalypse.Now.Redux.1979.DVDRIP-Atilla82.avi
Format                           : AVI
Format/Info                      : Audio Video Interleave
Format profile                   : OpenDML
File size                        : 1.12 GiB
Duration                         : 3h 13mn
Overall bit rate                 : 823 Kbps
Writing application              : MEncoder UNKNOWN-4.2.4
Writing library                  : MPlayer

Video
ID                               : 0
Format                           : MPEG-4 Visual
Format profile                   : Advanced Simple@L5
Format settings, BVOP            : Yes
Format settings, QPel            : No
Format settings, GMC             : No warppoints
Format settings, Matrix          : Default (H.263)
Codec ID                         : XVID
Codec ID/Hint                    : XviD
Duration                         : 2h 48mn
Bit rate                         : 799 Kbps
Width                            : 720 pixels
Height                           : 352 pixels
Display aspect ratio             : 2.063
Frame rate                       : 25.000 fps
Resolution                       : 24 bits
Colorimetry                      : 4:2:0
Scan type                        : Progressive
Bits/(Pixel*Frame)               : 0.126
Stream size                      : 964 MiB (84%)
Writing library                  : XviD 1.2.1 (UTC 2008-12-04)

Audio
ID                               : 1
Format                           : MPEG Audio
Format version                   : Version 1
Format profile                   : Layer 3
Codec ID                         : 55
Codec ID/Hint                    : MP3
Duration                         : 3h 13mn
Bit rate mode                    : Constant
Bit rate                         : 112 Kbps
Channel(s)                       : 2 channels
Sampling rate                    : 48.0 KHz
Resolution                       : 16 bits
Video delay                      : 40ms
Stream size                      : 155 MiB (14%)
Alignment                        : Aligned on interleaves
Interleave, duration             : 24 ms (0.60 video frame)
Interleave, preload duration     : 504 ms



Apocalypse Now is a 1979 American epic war film set during the Vietnam War. The plot revolves around two US Army special operations officers, one of whom, Captain Benjamin L. Willard (Martin Sheen) of MACV-SOG, is sent into the jungle to assassinate the other, the rogue and presumably insane Colonel Walter E. Kurtz (Marlon Brando) of Special Forces. The film was produced and directed by Francis Ford Coppola from a script by Coppola and John Milius. The script is based on Joseph Conrad's novella Heart of Darkness, and also draws elements from Michael Herr's Dispatches, the film version of Conrad's Lord Jim (which shares the same character of Marlow with Heart of Darkness), and Werner Herzog's Aguirre, the Wrath of God (1972).[1]

The film became notorious in the entertainment press due to its lengthy and troubled production, as documented in Hearts of Darkness: A Filmmaker's Apocalypse. Marlon Brando showed up to the set overweight and Martin Sheen suffered a heart attack. The production was also beset by extreme weather that destroyed several expensive sets. In addition, the release date of the film was delayed several times as Coppola struggled to come up with an ending and to edit the millions of feet of footage that he had shot.

The film won the Cannes Palme d'Or and was nominated for the Academy Award for Best Picture and the Golden Globe Award for Best Motion Picture – Drama.

